<?xml version="1.0" encoding="UTF-8" standalone="no"?>
<!-- Created with Inkscape (http://www.inkscape.org/) -->

<svg
   width="203.519mm"
   height="49.450001mm"
   viewBox="0 0 203.519 49.450001"
   version="1.1"
   id="svg5"
   xml:space="preserve"
   inkscape:version="1.2.2 (b0a8486541, 2022-12-01)"
   sodipodi:docname="exosett-logo-horizontal-master.svg"
   xmlns:inkscape="http://www.inkscape.org/namespaces/inkscape"
   xmlns:sodipodi="http://sodipodi.sourceforge.net/DTD/sodipodi-0.dtd"
   xmlns="http://www.w3.org/2000/svg"
   xmlns:svg="http://www.w3.org/2000/svg"><sodipodi:namedview
     id="namedview7"
     pagecolor="#ffffff"
     bordercolor="#000000"
     borderopacity="0.25"
     inkscape:showpageshadow="2"
     inkscape:pageopacity="0.0"
     inkscape:pagecheckerboard="0"
     inkscape:deskcolor="#d1d1d1"
     inkscape:document-units="mm"
     showgrid="false"
     inkscape:zoom="1"
     inkscape:cx="361"
     inkscape:cy="161.5"
     inkscape:window-width="1653"
     inkscape:window-height="843"
     inkscape:window-x="0"
     inkscape:window-y="0"
     inkscape:window-maximized="0"
     inkscape:current-layer="layer1" /><defs
     id="defs2" /><g
     inkscape:label="Layer 1"
     inkscape:groupmode="layer"
     id="layer1"
     transform="translate(-25.243105,-93.059811)"><path
       id="rect1-6"
       style="fill:#000000;stroke-width:0.264583"
       d="m 35.151458,95.559812 v 5.953638 a 3.4395833,3.4395833 0 0 0 -1.454691,1.45469 h -5.953642 v 3.175 h 5.953642 a 3.4395833,3.4395833 0 0 0 1.454691,1.4547 v 20.37395 a 3.4395833,3.4395833 0 0 0 -1.454691,1.45469 h -5.953642 v 3.175 h 5.953642 a 3.4395833,3.4395833 0 0 0 1.454691,1.45469 v 5.95364 h 3.175 v -5.95364 a 3.4395833,3.4395833 0 0 0 1.454692,-1.45469 h 20.373949 a 3.4395833,3.4395833 0 0 0 1.454693,1.45469 v 5.95364 h 3.175 v -5.95364 a 3.4395833,3.4395833 0 0 0 1.454692,-1.45469 h 5.953641 v -3.175 h -5.945373 a 3.4395833,3.4395833 0 0 0 -1.46296,-1.46296 v -20.36568 a 3.4395833,3.4395833 0 0 0 1.454692,-1.4547 h 5.953641 v -3.175 h -5.945373 a 3.4395833,3.4395833 0 0 0 -1.46296,-1.46296 v -5.945368 h -3.175 v 5.953638 a 3.4395833,3.4395833 0 0 0 -1.454693,1.45469 H 39.789418 a 3.4395833,3.4395833 0 0 0 -1.46296,-1.46296 v -5.945368 z m 1.5875,6.746878 a 2.2489583,2.2489583 0 0 1 2.248959,2.24895 2.2489583,2.2489583 0 0 1 -2.248959,2.24896 2.2489583,2.2489583 0 0 1 -2.248958,-2.24896 2.2489583,2.2489583 0 0 1 2.248958,-2.24895 z m 26.458334,0 a 2.2489583,2.2489583 0 0 1 2.248958,2.24895 2.2489583,2.2489583 0 0 1 -2.248958,2.24896 2.2489583,2.2489583 0 0 1 -2.248959,-2.24896 2.2489583,2.2489583 0 0 1 2.248959,-2.24895 z m -23.416142,3.83645 h 20.373949 a 3.4395833,3.4395833 0 0 0 1.454693,1.4547 v 20.37395 a 3.4395833,3.4395833 0 0 0 -1.454693,1.45469 H 39.789418 a 3.4395833,3.4395833 0 0 0 -1.46296,-1.46296 v -20.36568 a 3.4395833,3.4395833 0 0 0 1.454692,-1.4547 z m -3.042192,22.62188 a 2.2489583,2.2489583 0 0 1 2.248959,2.24896 2.2489583,2.2489583 0 0 1 -2.248959,2.24896 2.2489583,2.2489583 0 0 1 -2.248958,-2.24896 2.2489583,2.2489583 0 0 1 2.248958,-2.24896 z m 26.458334,0 a 2.2489583,2.2489583 0 0 1 2.248958,2.24896 2.2489583,2.2489583 0 0 1 -2.248958,2.24896 2.2489583,2.2489583 0 0 1 -2.248959,-2.24896 2.2489583,2.2489583 0 0 1 2.248959,-2.24896 z" /><text
       xml:space="preserve"
       style="font-size:39.8016px;fill:#000000;stroke-width:1.8657"
       x="74.42131"
       y="132.38652"
       id="text113"><tspan
         sodipodi:role="line"
         id="tspan111"
         style="font-size:39.8016px;stroke-width:1.8657"
         x="74.42131"
         y="132.38652">ExoSett</tspan></text></g></svg>
