<?xml version="1.0" encoding="UTF-8" standalone="no"?>
<svg
   width="193.0909"
   height="193.0909"
   viewBox="0 0 193.0909 193.0909"
   role="img"
   aria-labelledby="title desc"
   version="1.1"
   id="svg7"
   sodipodi:docname="exosett-favicon-master.svg"
   inkscape:version="1.4.4 (dcaf3e7, 2026-05-05)"
   inkscape:export-filename="../favicon-source/favicon-16.png"
   inkscape:export-xdpi="7.954803"
   inkscape:export-ydpi="7.954803"
   xmlns:inkscape="http://www.inkscape.org/namespaces/inkscape"
   xmlns:sodipodi="http://sodipodi.sourceforge.net/DTD/sodipodi-0.dtd"
   xmlns="http://www.w3.org/2000/svg"
   xmlns:svg="http://www.w3.org/2000/svg"
   xmlns:rdf="http://www.w3.org/1999/02/22-rdf-syntax-ns#"
   xmlns:cc="http://creativecommons.org/ns#"
   xmlns:dc="http://purl.org/dc/elements/1.1/">
  <defs
     id="defs1" />
  <sodipodi:namedview
     id="namedview1"
     pagecolor="#ffffff"
     bordercolor="#000000"
     borderopacity="0.25"
     inkscape:showpageshadow="2"
     inkscape:pageopacity="0.0"
     inkscape:pagecheckerboard="0"
     inkscape:deskcolor="#d1d1d1"
     inkscape:zoom="3.6666667"
     inkscape:cx="96.545455"
     inkscape:cy="96.409091"
     inkscape:window-width="2065"
     inkscape:window-height="1186"
     inkscape:window-x="320"
     inkscape:window-y="77"
     inkscape:window-maximized="0"
     inkscape:current-layer="svg7" />
  <title
     id="title">ExoSett favicon</title>
  <desc
     id="desc">The black ExoSett frame-cell symbol centred on an opaque white square.</desc>
  <rect
     id="background"
     x="0"
     y="0"
     width="193.091"
     height="193.0909"
     style="fill:#ffffff;fill-opacity:1;stroke-width:0.804545"
     rx="15"
     ry="15" />
  <path
     id="rect1"
     style="fill:#000000"
     d="m 40.545448,12.545448 v 22.501953 a 13,13 0 0 0 -5.498047,5.498047 H 12.545448 v 12 h 22.501953 a 13,13 0 0 0 5.498047,5.498047 V 135.0474 a 13,13 0 0 0 -5.498047,5.49805 H 12.545448 v 12 h 22.501953 a 13,13 0 0 0 5.498047,5.49805 v 22.50195 h 12 V 158.0435 a 13,13 0 0 0 5.498047,-5.49805 H 135.0474 a 13,13 0 0 0 5.49805,5.49805 v 22.50195 h 12 V 158.0435 a 13,13 0 0 0 5.49805,-5.49805 h 22.50195 v -12 h -22.4707 a 13,13 0 0 0 -5.5293,-5.5293 V 58.043495 a 13,13 0 0 0 5.49805,-5.498047 h 22.50195 v -12 h -22.4707 a 13,13 0 0 0 -5.5293,-5.529297 V 12.545448 h -12 v 22.501953 a 13,13 0 0 0 -5.49805,5.498047 H 58.074745 A 13,13 0 0 0 52.545448,35.016151 V 12.545448 Z m 6,25.5 a 8.5,8.5 0 0 1 8.5,8.5 8.5,8.5 0 0 1 -8.5,8.5 8.5,8.5 0 0 1 -8.5,-8.5 8.5,8.5 0 0 1 8.5,-8.5 z m 100.000002,0 a 8.5,8.5 0 0 1 8.5,8.5 8.5,8.5 0 0 1 -8.5,8.5 8.5,8.5 0 0 1 -8.5,-8.5 8.5,8.5 0 0 1 8.5,-8.5 z m -88.501955,14.5 H 135.0474 a 13,13 0 0 0 5.49805,5.498047 V 135.0474 a 13,13 0 0 0 -5.49805,5.49805 H 58.074745 a 13,13 0 0 0 -5.529297,-5.5293 V 58.043495 a 13,13 0 0 0 5.498047,-5.498047 z M 46.545448,138.04545 a 8.5,8.5 0 0 1 8.5,8.5 8.5,8.5 0 0 1 -8.5,8.5 8.5,8.5 0 0 1 -8.5,-8.5 8.5,8.5 0 0 1 8.5,-8.5 z m 100.000002,0 a 8.5,8.5 0 0 1 8.5,8.5 8.5,8.5 0 0 1 -8.5,8.5 8.5,8.5 0 0 1 -8.5,-8.5 8.5,8.5 0 0 1 8.5,-8.5 z" />
  <metadata
     id="metadata1">
    <rdf:RDF>
      <cc:Work
         rdf:about="">
        <dc:title>ExoSett favicon</dc:title>
      </cc:Work>
    </rdf:RDF>
  </metadata>
</svg>
