<?xml version="1.0" encoding="UTF-8" standalone="no"?>
<!-- Created with Inkscape (http://www.inkscape.org/) -->

<svg
   width="203.519mm"
   height="49.450001mm"
   viewBox="0 0 203.519 49.450001"
   version="1.1"
   id="svg5"
   xml:space="preserve"
   inkscape:version="1.2.2 (b0a8486541, 2022-12-01)"
   sodipodi:docname="exosett-logo-horizontal-white.svg"
   xmlns:inkscape="http://www.inkscape.org/namespaces/inkscape"
   xmlns:sodipodi="http://sodipodi.sourceforge.net/DTD/sodipodi-0.dtd"
   xmlns="http://www.w3.org/2000/svg"
   xmlns:svg="http://www.w3.org/2000/svg"><sodipodi:namedview
     id="namedview7"
     pagecolor="#ffffff"
     bordercolor="#000000"
     borderopacity="0.25"
     inkscape:showpageshadow="2"
     inkscape:pageopacity="0.0"
     inkscape:pagecheckerboard="0"
     inkscape:deskcolor="#d1d1d1"
     inkscape:document-units="mm"
     showgrid="false"
     inkscape:zoom="1"
     inkscape:cx="328"
     inkscape:cy="161.5"
     inkscape:window-width="1653"
     inkscape:window-height="843"
     inkscape:window-x="0"
     inkscape:window-y="0"
     inkscape:window-maximized="0"
     inkscape:current-layer="layer1" /><defs
     id="defs2" /><g
     inkscape:label="Layer 1"
     inkscape:groupmode="layer"
     id="layer1"
     transform="translate(-25.243105,-93.059811)"><path
       id="rect1-6"
       style="fill:#ffffff;stroke-width:0.264583;fill-opacity:1"
       d="m 35.151458,95.559812 v 5.953638 a 3.4395833,3.4395833 0 0 0 -1.454691,1.45469 h -5.953642 v 3.175 h 5.953642 a 3.4395833,3.4395833 0 0 0 1.454691,1.4547 v 20.37395 a 3.4395833,3.4395833 0 0 0 -1.454691,1.45469 h -5.953642 v 3.175 h 5.953642 a 3.4395833,3.4395833 0 0 0 1.454691,1.45469 v 5.95364 h 3.175 v -5.95364 a 3.4395833,3.4395833 0 0 0 1.454692,-1.45469 h 20.373949 a 3.4395833,3.4395833 0 0 0 1.454693,1.45469 v 5.95364 h 3.175 v -5.95364 a 3.4395833,3.4395833 0 0 0 1.454692,-1.45469 h 5.953641 v -3.175 h -5.945373 a 3.4395833,3.4395833 0 0 0 -1.46296,-1.46296 v -20.36568 a 3.4395833,3.4395833 0 0 0 1.454692,-1.4547 h 5.953641 v -3.175 h -5.945373 a 3.4395833,3.4395833 0 0 0 -1.46296,-1.46296 v -5.945368 h -3.175 v 5.953638 a 3.4395833,3.4395833 0 0 0 -1.454693,1.45469 H 39.789418 a 3.4395833,3.4395833 0 0 0 -1.46296,-1.46296 v -5.945368 z m 1.5875,6.746878 a 2.2489583,2.2489583 0 0 1 2.248959,2.24895 2.2489583,2.2489583 0 0 1 -2.248959,2.24896 2.2489583,2.2489583 0 0 1 -2.248958,-2.24896 2.2489583,2.2489583 0 0 1 2.248958,-2.24895 z m 26.458334,0 a 2.2489583,2.2489583 0 0 1 2.248958,2.24895 2.2489583,2.2489583 0 0 1 -2.248958,2.24896 2.2489583,2.2489583 0 0 1 -2.248959,-2.24896 2.2489583,2.2489583 0 0 1 2.248959,-2.24895 z m -23.416142,3.83645 h 20.373949 a 3.4395833,3.4395833 0 0 0 1.454693,1.4547 v 20.37395 a 3.4395833,3.4395833 0 0 0 -1.454693,1.45469 H 39.789418 a 3.4395833,3.4395833 0 0 0 -1.46296,-1.46296 v -20.36568 a 3.4395833,3.4395833 0 0 0 1.454692,-1.4547 z m -3.042192,22.62188 a 2.2489583,2.2489583 0 0 1 2.248959,2.24896 2.2489583,2.2489583 0 0 1 -2.248959,2.24896 2.2489583,2.2489583 0 0 1 -2.248958,-2.24896 2.2489583,2.2489583 0 0 1 2.248958,-2.24896 z m 26.458334,0 a 2.2489583,2.2489583 0 0 1 2.248958,2.24896 2.2489583,2.2489583 0 0 1 -2.248958,2.24896 2.2489583,2.2489583 0 0 1 -2.248959,-2.24896 2.2489583,2.2489583 0 0 1 2.248959,-2.24896 z" /><g
       aria-label="ExoSett"
       id="text113"
       style="font-size:39.8016px;stroke-width:1.8657;fill:#ffffff;fill-opacity:1"><path
         d="m 78.32762,103.371 h 18.346051 v 3.30384 H 82.253364 v 8.59 h 13.817841 v 3.30384 H 82.253364 v 10.514 h 14.770125 v 3.30384 H 78.32762 Z"
         id="path2802"
         style="fill:#ffffff;fill-opacity:1" /><path
         d="m 121.41363,110.62002 -7.87092,10.59173 8.27904,11.17477 h -4.21726 l -6.3356,-8.55112 -6.33561,8.55112 h -4.21726 l 8.45395,-11.38854 -7.73488,-10.37796 h 4.21726 l 5.77201,7.75432 5.77201,-7.75432 z"
         id="path2804"
         style="fill:#ffffff;fill-opacity:1" /><path
         d="m 134.08484,113.12705 q -2.87628,0 -4.54764,2.25439 -1.67136,2.23495 -1.67136,6.14126 0,3.90631 1.65193,6.1607 1.67135,2.23495 4.56707,2.23495 2.85686,0 4.52821,-2.25438 1.67136,-2.25439 1.67136,-6.14127 0,-3.86744 -1.67136,-6.12182 -1.67135,-2.27383 -4.52821,-2.27383 z m 0,-3.03176 q 4.66425,0 7.32676,3.03176 2.66251,3.03177 2.66251,8.39565 0,5.34446 -2.66251,8.39565 -2.66251,3.03177 -7.32676,3.03177 -4.68368,0 -7.34619,-3.03177 -2.64308,-3.05119 -2.64308,-8.39565 0,-5.36388 2.64308,-8.39565 2.66251,-3.03176 7.34619,-3.03176 z"
         id="path2806"
         style="fill:#ffffff;fill-opacity:1" /><path
         d="m 167.55084,104.32328 v 3.82857 q -2.23495,-1.06889 -4.21726,-1.59361 -1.98231,-0.52473 -3.82857,-0.52473 -3.20667,0 -4.95577,1.2438 -1.72966,1.2438 -1.72966,3.53705 0,1.92401 1.14663,2.91516 1.16606,0.97172 4.39217,1.57418 l 2.37099,0.48586 q 4.39217,0.83568 6.47165,2.95403 2.09891,2.09891 2.09891,5.63597 0,4.21726 -2.83742,6.39391 -2.81798,2.17665 -8.27904,2.17665 -2.06004,0 -4.39217,-0.46643 -2.31269,-0.46642 -4.80029,-1.37984 v -4.04235 q 2.39043,1.34097 4.68368,2.02118 2.29326,0.6802 4.50878,0.6802 3.36215,0 5.18898,-1.32154 1.82683,-1.32154 1.82683,-3.77027 0,-2.13778 -1.32154,-3.34271 -1.3021,-1.20493 -4.295,-1.8074 l -2.39042,-0.46642 q -4.39217,-0.87455 -6.35504,-2.74025 -1.96288,-1.8657 -1.96288,-5.18898 0,-3.848 2.70138,-6.06352 2.72081,-2.21552 7.48224,-2.21552 2.04061,0 4.15895,0.36925 2.11835,0.36926 4.33387,1.10776 z"
         id="path2808"
         style="fill:#ffffff;fill-opacity:1" /><path
         d="m 193.88442,120.60929 v 1.74909 h -16.44149 q 0.23322,3.69253 2.21552,5.63597 2.00174,1.924 5.55823,1.924 2.06005,0 3.98405,-0.50529 1.94344,-0.50529 3.84801,-1.51588 v 3.38158 q -1.92401,0.81624 -3.94518,1.2438 -2.02118,0.42756 -4.10065,0.42756 -5.20842,0 -8.25961,-3.03177 -3.03177,-3.03176 -3.03177,-8.2013 0,-5.34446 2.87629,-8.47339 2.89572,-3.14837 7.79319,-3.14837 4.39217,0 6.93807,2.83742 2.56534,2.81798 2.56534,7.67658 z m -3.57593,-1.04946 q -0.0389,-2.93459 -1.65192,-4.68368 -1.59362,-1.7491 -4.2367,-1.7491 -2.99289,0 -4.80029,1.69079 -1.78796,1.6908 -2.06004,4.76143 z"
         id="path2810"
         style="fill:#ffffff;fill-opacity:1" /><path
         d="m 203.29065,104.43989 v 6.18013 h 7.36563 v 2.77912 h -7.36563 v 11.8161 q 0,2.66251 0.71907,3.42045 0.73851,0.75794 2.97346,0.75794 h 3.6731 v 2.99289 h -3.6731 q -4.13952,0 -5.7137,-1.53532 -1.57419,-1.55475 -1.57419,-5.63596 v -11.8161 h -2.62364 v -2.77912 h 2.62364 v -6.18013 z"
         id="path2812"
         style="fill:#ffffff;fill-opacity:1" /><path
         d="m 218.89646,104.43989 v 6.18013 h 7.36563 v 2.77912 h -7.36563 v 11.8161 q 0,2.66251 0.71907,3.42045 0.73851,0.75794 2.97346,0.75794 h 3.6731 v 2.99289 h -3.6731 q -4.13952,0 -5.71371,-1.53532 -1.57418,-1.55475 -1.57418,-5.63596 v -11.8161 h -2.62364 v -2.77912 h 2.62364 v -6.18013 z"
         id="path2814"
         style="fill:#ffffff;fill-opacity:1" /></g></g></svg>
