<?xml version="1.0" encoding="UTF-8" standalone="no"?>
<!-- Created with Inkscape (http://www.inkscape.org/) -->

<svg
   width="203.519mm"
   height="49.450001mm"
   viewBox="0 0 203.519 49.450001"
   version="1.1"
   id="svg5"
   xml:space="preserve"
   inkscape:version="1.2.2 (b0a8486541, 2022-12-01)"
   sodipodi:docname="exosett-logo-horizontal.svg"
   xmlns:inkscape="http://www.inkscape.org/namespaces/inkscape"
   xmlns:sodipodi="http://sodipodi.sourceforge.net/DTD/sodipodi-0.dtd"
   xmlns="http://www.w3.org/2000/svg"
   xmlns:svg="http://www.w3.org/2000/svg"><sodipodi:namedview
     id="namedview7"
     pagecolor="#ffffff"
     bordercolor="#000000"
     borderopacity="0.25"
     inkscape:showpageshadow="2"
     inkscape:pageopacity="0.0"
     inkscape:pagecheckerboard="0"
     inkscape:deskcolor="#d1d1d1"
     inkscape:document-units="mm"
     showgrid="false"
     inkscape:zoom="0.914906"
     inkscape:cx="256.85699"
     inkscape:cy="224.61324"
     inkscape:window-width="1519"
     inkscape:window-height="847"
     inkscape:window-x="0"
     inkscape:window-y="0"
     inkscape:window-maximized="0"
     inkscape:current-layer="layer1" /><defs
     id="defs2" /><g
     inkscape:label="Layer 1"
     inkscape:groupmode="layer"
     id="layer1"
     transform="translate(-25.243105,-93.059811)"><g
       aria-label="ExoSett"
       id="text113"
       style="font-size:39.8016px;stroke-width:1.8657"
       transform="translate(0,1.0583333)"><path
         d="m 78.32762,102.31268 h 18.346051 v 3.30384 H 82.253364 v 8.59 h 13.817841 v 3.30384 H 82.253364 v 10.514 h 14.770125 v 3.30384 H 78.32762 Z"
         id="path179" /><path
         d="m 121.41363,109.5617 -7.87092,10.59174 8.27904,11.17476 h -4.21726 l -6.3356,-8.55112 -6.33561,8.55112 h -4.21726 l 8.45395,-11.38854 -7.73488,-10.37796 h 4.21726 l 5.77201,7.75432 5.77201,-7.75432 z"
         id="path181" /><path
         d="m 134.08484,112.06873 q -2.87628,0 -4.54764,2.25439 -1.67136,2.23496 -1.67136,6.14127 0,3.9063 1.65193,6.16069 1.67135,2.23496 4.56707,2.23496 2.85686,0 4.52821,-2.25439 1.67136,-2.25439 1.67136,-6.14126 0,-3.86745 -1.67136,-6.12183 -1.67135,-2.27383 -4.52821,-2.27383 z m 0,-3.03176 q 4.66425,0 7.32676,3.03176 2.66251,3.03177 2.66251,8.39566 0,5.34445 -2.66251,8.39565 -2.66251,3.03176 -7.32676,3.03176 -4.68368,0 -7.34619,-3.03176 -2.64308,-3.0512 -2.64308,-8.39565 0,-5.36389 2.64308,-8.39566 2.66251,-3.03176 7.34619,-3.03176 z"
         id="path183" /><path
         d="m 167.55084,103.26496 v 3.82857 q -2.23495,-1.06889 -4.21726,-1.59361 -1.98231,-0.52473 -3.82857,-0.52473 -3.20667,0 -4.95577,1.2438 -1.72966,1.2438 -1.72966,3.53705 0,1.92401 1.14663,2.91516 1.16606,0.97172 4.39217,1.57419 l 2.37099,0.48585 q 4.39217,0.83568 6.47165,2.95403 2.09891,2.09891 2.09891,5.63597 0,4.21726 -2.83742,6.39391 -2.81798,2.17665 -8.27904,2.17665 -2.06004,0 -4.39217,-0.46643 -2.31269,-0.46642 -4.80029,-1.37984 v -4.04235 q 2.39043,1.34097 4.68368,2.02118 2.29326,0.6802 4.50878,0.6802 3.36215,0 5.18898,-1.32154 1.82683,-1.32153 1.82683,-3.77027 0,-2.13778 -1.32154,-3.34271 -1.3021,-1.20493 -4.295,-1.8074 l -2.39042,-0.46642 q -4.39217,-0.87455 -6.35504,-2.74025 -1.96288,-1.8657 -1.96288,-5.18898 0,-3.848 2.70138,-6.06352 2.72081,-2.21552 7.48224,-2.21552 2.04061,0 4.15895,0.36925 2.11835,0.36926 4.33387,1.10776 z"
         id="path185" /><path
         d="m 193.88442,119.55097 v 1.74909 h -16.44149 q 0.23322,3.69253 2.21552,5.63597 2.00174,1.92401 5.55823,1.92401 2.06005,0 3.98405,-0.5053 1.94344,-0.50529 3.84801,-1.51588 v 3.38158 q -1.92401,0.81625 -3.94518,1.2438 -2.02118,0.42756 -4.10065,0.42756 -5.20842,0 -8.25961,-3.03176 -3.03177,-3.03177 -3.03177,-8.20131 0,-5.34445 2.87629,-8.47339 2.89572,-3.14837 7.79319,-3.14837 4.39217,0 6.93807,2.83742 2.56534,2.81799 2.56534,7.67658 z m -3.57593,-1.04946 q -0.0389,-2.93459 -1.65192,-4.68368 -1.59362,-1.7491 -4.2367,-1.7491 -2.99289,0 -4.80029,1.6908 -1.78796,1.69079 -2.06004,4.76142 z"
         id="path187" /><path
         d="m 203.29065,103.38157 v 6.18013 h 7.36563 v 2.77912 h -7.36563 v 11.8161 q 0,2.66251 0.71907,3.42045 0.73851,0.75794 2.97346,0.75794 h 3.6731 v 2.99289 h -3.6731 q -4.13952,0 -5.7137,-1.53531 -1.57419,-1.55475 -1.57419,-5.63597 v -11.8161 h -2.62364 v -2.77912 h 2.62364 v -6.18013 z"
         id="path189" /><path
         d="m 218.89646,103.38157 v 6.18013 h 7.36563 v 2.77912 h -7.36563 v 11.8161 q 0,2.66251 0.71907,3.42045 0.73851,0.75794 2.97346,0.75794 h 3.6731 v 2.99289 h -3.6731 q -4.13952,0 -5.71371,-1.53531 -1.57418,-1.55475 -1.57418,-5.63597 v -11.8161 h -2.62364 v -2.77912 h 2.62364 v -6.18013 z"
         id="path191" /></g><g
       id="g299"
       transform="matrix(0.26458333,0,0,0.26458333,18.218125,86.034812)"><rect
         x="64"
         y="36"
         width="12"
         height="168"
         id="rect1"
         style="fill:#000000" /><rect
         x="164"
         y="36"
         width="12"
         height="168"
         id="rect2"
         style="fill:#000000" /><rect
         x="36"
         y="64"
         width="168"
         height="12"
         id="rect3"
         style="fill:#000000" /><rect
         x="36"
         y="164"
         width="168"
         height="12"
         id="rect4"
         style="fill:#000000" /><circle
         cx="70"
         cy="70"
         r="13"
         id="circle4"
         style="fill:#000000" /><circle
         cx="170"
         cy="70"
         r="13"
         id="circle5"
         style="fill:#000000" /><circle
         cx="70"
         cy="170"
         r="13"
         id="circle6"
         style="fill:#000000" /><circle
         cx="170"
         cy="170"
         r="13"
         id="circle7"
         style="fill:#000000" /><circle
         style="opacity:1;fill:#ffffff;stroke:none;stroke-width:0.682;stroke-dasharray:none"
         id="path7"
         cx="70"
         cy="70"
         r="8.5" /><circle
         style="fill:#ffffff;stroke:none;stroke-width:0.682;stroke-dasharray:none"
         id="path7-8"
         cx="70"
         cy="170"
         r="8.5" /><circle
         style="fill:#ffffff;stroke:none;stroke-width:0.682;stroke-dasharray:none"
         id="path7-2"
         cx="170"
         cy="170"
         r="8.5" /><circle
         style="fill:#ffffff;stroke:none;stroke-width:0.682;stroke-dasharray:none"
         id="path7-83"
         cx="170"
         cy="70"
         r="8.5" /></g></g></svg>
